<svg width="166" height="166" viewBox="0 0 166 166" fill="none" xmlns="http://www.w3.org/2000/svg">
<circle cx="83" cy="83" r="81" fill="#613838" stroke="#FFC700" stroke-width="4"/>
<path fill-rule="evenodd" clip-rule="evenodd" d="M84 142.5L84.4356 145.985C84.4777 146.322 84.6133 146.64 84.8271 146.903C85.0638 147.195 85.3852 147.406 85.747 147.508L87.4934 147.998C87.4978 147.999 87.5023 148 87.5069 148.001L92.5238 148.457C92.825 148.484 93.0976 148.646 93.2653 148.898L93.5609 149.341C93.8182 149.727 93.7763 150.24 93.4597 150.579L92.2965 151.824C92.1074 152.026 91.8428 152.141 91.5657 152.141H70.4344C70.1573 152.141 69.8927 152.026 69.7036 151.824L68.5404 150.579C68.2237 150.24 68.1818 149.727 68.4391 149.341L68.73 148.905C68.9004 148.649 69.179 148.486 69.4853 148.463L75.4945 148C75.4982 148 75.5018 148 75.5053 147.999L77.3197 147.528C77.7553 147.415 78.128 147.134 78.3558 146.746C78.4513 146.583 78.5189 146.406 78.5559 146.221L78.8147 144.926C78.9379 144.31 79 143.684 79 143.055V37.5L79.3593 29.954C79.4529 27.9888 79.7267 26.0364 80.1773 24.1213L80.6467 22.1264C81.2111 19.728 82.1983 17.4494 83.5623 15.3975L84.1118 14.5707C84.8276 13.4939 85.6918 12.5235 86.6789 11.6883L86.8019 11.5841C88.3027 10.3142 90.0713 9.40028 91.9754 8.91067L92.0762 8.88474C93.0697 8.62926 94.0915 8.5 95.1173 8.5H95.7639C97.2344 8.5 98.6847 8.84237 100 9.5C101.315 10.1576 102.459 11.1125 103.342 12.2889L103.961 13.1152C104.651 14.0348 105.224 15.0367 105.666 16.0978L105.962 16.8077C106.977 19.2451 107.5 21.8595 107.5 24.5V26L107.205 28.362C107.068 29.4524 106.848 30.5307 106.546 31.5873L106.497 31.7604C106.166 32.9176 105.729 34.0417 105.191 35.1182L105.107 35.2852C104.703 36.0938 104.235 36.8691 103.709 37.6038L102.933 38.6859C102.645 39.0868 102.31 39.4516 101.936 39.7722C101 40.5722 99.8457 41.0719 98.6223 41.2065L98.3806 41.233C97.4693 41.3333 96.5472 41.2513 95.6678 40.9919L95.4122 40.9165C94.4781 40.641 93.6003 40.2022 92.8193 39.6204L92.4454 39.3419C92.4044 39.3113 92.3476 39.3135 92.3091 39.3472L89.9803 41.3849L88.6775 42.3683C86.4281 44.0661 84.8629 46.515 84.2665 49.2694C84.0894 50.0875 84 50.9221 84 51.7591V142.5ZM85.1908 39.6633V35.5191C85.1908 32.6498 85.4359 29.7857 85.9234 26.9581L86.1802 25.4691C86.5177 23.5111 87.0291 21.5871 87.7081 19.7199L88.498 17.5476C88.8861 16.4803 89.4007 15.4632 90.0307 14.5181L90.9573 13.1282C91.3009 12.6128 91.7353 12.1642 92.2394 11.8041L92.8287 11.3832C93.3124 11.0377 93.892 10.852 94.4864 10.852C95.2428 10.852 95.9683 11.1525 96.5032 11.6873L97.4086 12.5928C98.0362 13.2203 98.5152 13.9804 98.8106 14.8173L99.5134 16.8088C99.9414 18.0213 100.214 19.2831 100.326 20.5641L100.757 25.5197V29.4544C100.757 31.0119 100.506 32.5592 100.013 34.0368L99.7085 34.9502C99.6093 35.248 99.4808 35.5353 99.325 35.8079L98.8933 36.5635C98.5526 37.1597 97.9923 37.599 97.332 37.7877C96.6507 37.9823 95.9196 37.8939 95.3043 37.5423L94.9236 37.3247C94.4287 37.042 94.0065 36.6478 93.6903 36.1736L93.0127 35.1571C92.9899 35.1229 92.9465 35.1089 92.908 35.1233L92.5609 35.2535C91.2548 35.7433 90.0687 36.5071 89.0823 37.4934L86.9639 40.2636C86.3899 41.0142 85.1908 40.6083 85.1908 39.6633Z" fill="url(#paint0_linear_495_327)"/>
<path d="M80.5 55L114.517 54.0263C115.343 54.0027 116 53.3263 116 52.5C116 51.6737 115.343 50.9973 114.517 50.9737L80.5 50L46.4833 50.9737C45.6573 50.9973 45 51.6737 45 52.5C45 53.3263 45.6573 54.0027 46.4833 54.0263L80.5 55Z" fill="url(#paint1_linear_495_327)"/>
<line y1="-2" x2="55.9918" y2="-2" transform="matrix(0.27195 -0.962311 0.912826 0.408348 99.1185 109.336)" stroke="#FFC700" stroke-width="4" stroke-dasharray="1.6 1.6"/>
<line y1="-2" x2="56.5682" y2="-2" transform="matrix(0.269179 0.96309 -0.914494 0.404599 115.773 55.454)" stroke="#FFC700" stroke-width="4" stroke-dasharray="1.6 1.6"/>
<path d="M94.1053 110.234L93.806 108.737H136.612L136.313 110.832L136.013 111.73L135.415 112.628H95.2034L94.704 111.73L94.1053 110.234Z" fill="url(#paint2_linear_495_327)"/>
<path d="M97.0987 114.424L95.602 112.928H135.115L133.618 114.724L131.822 115.622H98.8948L97.0987 114.424Z" fill="#FFC700"/>
<line y1="-2" x2="55.9417" y2="-2" transform="matrix(0.268881 -0.963173 0.910946 0.412526 31.5065 109.336)" stroke="#FFC700" stroke-width="4" stroke-dasharray="1.6 1.6"/>
<line y1="-2" x2="56.5186" y2="-2" transform="matrix(0.266137 0.963935 -0.912645 0.408754 47.9583 55.454)" stroke="#FFC700" stroke-width="4" stroke-dasharray="1.6 1.6"/>
<path d="M26.2993 110.234L26 108.737H68.8059L68.5066 110.832L68.2072 111.73L67.6086 112.628H27.3974L26.898 111.73L26.2993 110.234Z" fill="url(#paint3_linear_495_327)"/>
<path d="M29.2928 114.424L27.7961 112.928H67.3092L65.8125 114.724L64.0164 115.622H31.0888L29.2928 114.424Z" fill="#FFC700"/>
<path d="M49.4211 56.7792L48.7924 56.9679C48.1715 57.1541 47.5202 57.2168 46.8752 57.1523L46.6707 57.1318C45.5093 57.0157 44.44 56.4482 43.6928 55.5516C43.4729 55.2878 43.2844 54.9994 43.1308 54.6923L42.9397 54.3101C42.4333 53.2973 42.2243 52.1618 42.337 51.0352L42.3729 50.6766C42.4329 50.0765 42.6185 49.4958 42.9177 48.9722C43.3992 48.1296 44.1517 47.4748 45.0527 47.1144L45.3014 47.0149C46.1857 46.6612 47.1517 46.564 48.0887 46.7344L48.6468 46.8358C49.4979 46.9906 50.2913 47.3732 50.9424 47.9429C51.8428 48.7307 52.4155 49.8273 52.5476 51.0164L52.6415 51.8618V52.4509C52.6415 53.4286 52.3244 54.38 51.7377 55.1622C51.1582 55.935 50.3463 56.5017 49.4211 56.7792Z" fill="#FFC700"/>
<path d="M117.227 57.378L116.598 57.5666C115.977 57.7529 115.326 57.8155 114.681 57.751L114.476 57.7306C113.315 57.6144 112.246 57.047 111.499 56.1504C111.279 55.8865 111.09 55.5982 110.937 55.291L110.745 54.9088C110.239 53.8961 110.03 52.7606 110.143 51.6339L110.179 51.2753C110.239 50.6753 110.424 50.0946 110.724 49.571C111.205 48.7284 111.957 48.0736 112.859 47.7132L113.107 47.6137C113.991 47.26 114.957 47.1628 115.894 47.3331L116.453 47.4346C117.304 47.5893 118.097 47.9719 118.748 48.5416C119.649 49.3295 120.221 50.426 120.353 51.6151L120.447 52.4605V53.0496C120.447 54.0274 120.13 54.9788 119.544 55.761C118.964 56.5337 118.152 57.1004 117.227 57.378Z" fill="#FFC700"/>
<defs>
<linearGradient id="paint0_linear_495_327" x1="87.8856" y1="8.5" x2="87.8856" y2="152.141" gradientUnits="userSpaceOnUse">
<stop offset="0.195833" stop-color="#FFC700"/>
<stop offset="0.289583" stop-color="#F7DA77"/>
<stop offset="0.956249" stop-color="#FFC700"/>
</linearGradient>
<linearGradient id="paint1_linear_495_327" x1="45" y1="52.5" x2="116" y2="52.5" gradientUnits="userSpaceOnUse">
<stop stop-color="#FFC700"/>
<stop offset="0.586458" stop-color="#F5DD88"/>
<stop offset="1" stop-color="#FFC700"/>
</linearGradient>
<linearGradient id="paint2_linear_495_327" x1="93.5066" y1="110.533" x2="136.612" y2="110.533" gradientUnits="userSpaceOnUse">
<stop stop-color="#FFC700"/>
<stop offset="0.664583" stop-color="#F5DD88"/>
<stop offset="1" stop-color="#FFC700"/>
</linearGradient>
<linearGradient id="paint3_linear_495_327" x1="25.7007" y1="110.533" x2="68.8059" y2="110.533" gradientUnits="userSpaceOnUse">
<stop stop-color="#FFC700"/>
<stop offset="0.664583" stop-color="#F5DD88"/>
<stop offset="1" stop-color="#FFC700"/>
</linearGradient>
</defs>
</svg>
