<?xml version="1.0" standalone="no"?>
<!DOCTYPE svg PUBLIC "-//W3C//DTD SVG 20010904//EN"
 "http://www.w3.org/TR/2001/REC-SVG-20010904/DTD/svg10.dtd">
<svg version="1.0" xmlns="http://www.w3.org/2000/svg"
 width="700.000000pt" height="700.000000pt" viewBox="0 0 700.000000 700.000000"
 preserveAspectRatio="xMidYMid meet">
<metadata>
Created by potrace 1.14, written by Peter Selinger 2001-2017
</metadata>
<g transform="translate(0.000000,700.000000) scale(0.100000,-0.100000)"
fill="#000000" stroke="none">
<path d="M3278 6995 c-1 -1 -42 -5 -89 -9 -47 -4 -95 -8 -105 -10 -10 -2 -41
-7 -69 -10 -339 -44 -712 -157 -1033 -313 -177 -86 -446 -246 -552 -330 -8 -6
-51 -40 -95 -74 -340 -264 -650 -624 -875 -1014 -47 -83 -170 -327 -170 -340
0 -3 -9 -24 -20 -48 -57 -123 -157 -435 -186 -582 -2 -11 -10 -54 -19 -95 -29
-147 -36 -200 -52 -370 -15 -165 -8 -592 12 -711 2 -13 6 -46 9 -74 9 -78 22
-152 51 -285 21 -96 91 -339 114 -395 5 -11 25 -65 46 -120 64 -170 213 -461
314 -615 214 -324 467 -601 775 -848 89 -72 367 -262 382 -262 4 0 15 -6 23
-14 29 -26 335 -175 471 -229 114 -46 338 -120 398 -132 9 -2 55 -12 102 -24
109 -26 200 -43 299 -57 25 -3 57 -8 71 -10 162 -25 683 -25 842 1 13 2 46 7
73 10 71 10 87 13 115 18 14 3 43 8 65 12 22 4 76 16 120 27 44 10 87 21 96
23 225 51 643 223 853 350 32 19 62 35 67 35 5 0 9 5 9 10 0 6 5 10 10 10 15
0 220 141 330 227 151 117 324 281 450 422 36 41 70 79 76 85 6 6 48 61 94
121 150 197 277 405 383 628 26 53 47 99 47 102 0 2 11 28 24 57 57 127 151
421 182 573 17 81 54 301 59 350 4 33 9 71 11 85 9 47 11 525 4 605 -15 159
-21 210 -25 225 -2 8 -7 35 -10 60 -17 129 -80 384 -136 552 -350 1043 -1171
1861 -2221 2212 -156 52 -409 114 -538 131 -19 3 -46 7 -60 10 -13 2 -52 7
-86 11 -33 3 -74 8 -90 10 -32 5 -540 14 -546 9z"/>
</g>
</svg>
