<svg width="282" height="155" viewBox="0 0 282 155" fill="none" xmlns="http://www.w3.org/2000/svg">
<path fill-rule="evenodd" clip-rule="evenodd" d="M70 134.5L70.4356 137.985C70.4777 138.322 70.6133 138.64 70.827 138.903C71.0637 139.195 71.3851 139.406 71.7469 139.508L73.4933 139.998C73.4978 139.999 73.5023 140 73.5069 140.001L78.5237 140.457C78.8249 140.484 79.0975 140.646 79.2652 140.898L79.5609 141.341C79.8182 141.727 79.7763 142.24 79.4596 142.579L78.2965 143.824C78.1073 144.026 77.8427 144.141 77.5656 144.141H56.4343C56.1573 144.141 55.8926 144.026 55.7035 143.824L54.5403 142.579C54.2237 142.24 54.1818 141.727 54.4391 141.341L54.7299 140.905C54.9004 140.649 55.1789 140.486 55.4853 140.463L61.4944 140C61.4981 140 61.5017 140 61.5053 139.999L63.3196 139.528C63.7552 139.415 64.128 139.134 64.3557 138.746C64.4512 138.583 64.5188 138.406 64.5558 138.221L64.8147 136.926C64.9379 136.31 64.9999 135.684 64.9999 135.055V29.5L65.3593 21.954C65.4529 19.9888 65.7267 18.0364 66.1773 16.1213L66.6467 14.1264C67.211 11.728 68.1983 9.44939 69.5622 7.39746L70.1118 6.5707C70.8275 5.49387 71.6918 4.52348 72.6788 3.68826L72.8019 3.58414C74.3027 2.31424 76.0713 1.40028 77.9753 0.910674L78.0762 0.884736C79.0697 0.629264 80.0914 0.5 81.1173 0.5H81.7639C83.2344 0.5 84.6847 0.842371 85.9999 1.5C87.3152 2.15763 88.4593 3.11245 89.3416 4.28885L89.9614 5.11522C90.6511 6.03483 91.2236 7.03674 91.6657 8.09782L91.9615 8.80769C92.9771 11.2451 93.4999 13.8595 93.4999 16.5V18L93.2047 20.362C93.0684 21.4524 92.8483 22.5307 92.5464 23.5873L92.497 23.7604C92.1663 24.9176 91.7291 26.0417 91.1908 27.1182L91.1073 27.2852C90.703 28.0938 90.2353 28.8691 89.7086 29.6038L88.9327 30.6859C88.6452 31.0868 88.3104 31.4516 87.9355 31.7722C87.0002 32.5722 85.8456 33.0719 84.6223 33.2065L84.3806 33.233C83.4692 33.3333 82.5471 33.2513 81.6677 32.9919L81.4121 32.9165C80.4781 32.641 79.6002 32.2022 78.8192 31.6204L78.4453 31.3419C78.4043 31.3113 78.3475 31.3135 78.309 31.3472L75.9803 33.3849L74.6774 34.3683C72.428 36.0661 70.8628 38.515 70.2664 41.2694C70.0893 42.0875 70 42.9221 70 43.7591V134.5ZM71.1908 31.6633V27.5191C71.1908 24.6498 71.4359 21.7857 71.9234 18.9581L72.1801 17.4691C72.5177 15.5111 73.029 13.5871 73.708 11.7199L74.4979 9.54765C74.8861 8.48025 75.4006 7.46317 76.0306 6.51815L76.9573 5.12823C77.3009 4.61283 77.7353 4.16416 78.2393 3.80412L78.8286 3.38323C79.3123 3.03771 79.8919 2.85197 80.4864 2.85197C81.2428 2.85197 81.9682 3.15246 82.5031 3.68734L83.4085 4.59277C84.0361 5.22032 84.5151 5.98044 84.8105 6.81733L85.5134 8.80876C85.9413 10.0213 86.2142 11.2831 86.3256 12.5641L86.7566 17.5197V21.4544C86.7566 23.0119 86.5055 24.5592 86.0129 26.0368L85.7085 26.9502C85.6092 27.248 85.4807 27.5353 85.325 27.8079L84.8932 28.5635C84.5525 29.1597 83.9922 29.599 83.332 29.7877C82.6506 29.9823 81.9195 29.8939 81.3043 29.5423L80.9235 29.3247C80.4287 29.042 80.0064 28.6478 79.6903 28.1736L79.0126 27.1571C78.9898 27.1229 78.9464 27.1089 78.9079 27.1233L78.5608 27.2535C77.2547 27.7433 76.0686 28.5071 75.0822 29.4934L72.9639 32.2636C72.3898 33.0142 71.1908 32.6083 71.1908 31.6633Z" fill="#FFCA63"/>
<path d="M66.7007 46.2566L109.039 45.5445C109.631 45.5345 110.105 45.0521 110.105 44.4605C110.105 43.8689 109.631 43.3865 109.039 43.3765L66.7007 42.6645L24.362 43.3765C23.7705 43.3865 23.2961 43.8689 23.2961 44.4605C23.2961 45.0521 23.7705 45.5345 24.362 45.5445L66.7007 46.2566Z" fill="url(#paint0_linear_363_201)"/>
<line x1="90.6039" y1="101.001" x2="109.762" y2="47.1189" stroke="#FFC700" stroke-width="2" stroke-dasharray="1.6 1.6"/>
<line x1="113.443" y1="47.1222" x2="132.601" y2="101.602" stroke="#FFC700" stroke-width="2" stroke-dasharray="1.6 1.6"/>
<path d="M90.6481 102.234L90.3488 100.737H133.155L132.855 102.832L132.556 103.73L131.957 104.628H91.7462L91.2468 103.73L90.6481 102.234Z" fill="url(#paint1_linear_363_201)"/>
<path d="M93.6416 106.424L92.1449 104.928H131.658L130.161 106.724L128.365 107.622H95.4377L93.6416 106.424Z" fill="#FFC700"/>
<line x1="1.39995" y1="101.001" x2="20.5578" y2="47.1189" stroke="#FFC700" stroke-width="2" stroke-dasharray="1.6 1.6"/>
<line x1="24.2394" y1="47.1222" x2="43.3973" y2="101.602" stroke="#FFC700" stroke-width="2" stroke-dasharray="1.6 1.6"/>
<path d="M1.44412 102.234L1.14478 100.737H43.9507L43.6514 102.832L43.352 103.73L42.7533 104.628H2.54221L2.0428 103.73L1.44412 102.234Z" fill="url(#paint2_linear_363_201)"/>
<path d="M4.43751 106.424L2.9408 104.928H42.454L40.9572 106.724L39.1612 107.622H6.23356L4.43751 106.424Z" fill="#FFC700"/>
<path d="M24.5657 48.7793L23.937 48.9679C23.3162 49.1541 22.6648 49.2168 22.0199 49.1523L21.8153 49.1318C20.654 49.0157 19.5846 48.4483 18.8374 47.5516C18.6176 47.2878 18.429 46.9995 18.2754 46.6923L18.0843 46.3101C17.578 45.2974 17.369 44.1619 17.4817 43.0352L17.5175 42.6766C17.5775 42.0765 17.7632 41.4958 18.0624 40.9722C18.5438 40.1297 19.2964 39.4749 20.1974 39.1144L20.4461 39.015C21.3303 38.6613 22.2963 38.564 23.2333 38.7344L23.7914 38.8359C24.6426 38.9906 25.4359 39.3732 26.087 39.9429C26.9874 40.7308 27.5601 41.8273 27.6922 43.0164L27.7862 43.8618V44.4509C27.7862 45.4287 27.469 46.3801 26.8824 47.1623C26.3028 47.935 25.4909 48.5017 24.5657 48.7793Z" fill="#FFC700"/>
<path d="M113.77 49.378L113.141 49.5666C112.52 49.7528 111.869 49.8155 111.224 49.751L111.019 49.7305C109.858 49.6144 108.789 49.047 108.041 48.1503C107.822 47.8865 107.633 47.5982 107.479 47.291L107.288 46.9088C106.782 45.8961 106.573 44.7606 106.686 43.6339L106.722 43.2753C106.782 42.6752 106.967 42.0945 107.266 41.5709C107.748 40.7283 108.5 40.0736 109.401 39.7131L109.65 39.6137C110.534 39.26 111.5 39.1627 112.437 39.3331L112.995 39.4346C113.847 39.5893 114.64 39.9719 115.291 40.5416C116.191 41.3295 116.764 42.426 116.896 43.6151L116.99 44.4605V45.0496C116.99 46.0274 116.673 46.9787 116.086 47.761C115.507 48.5337 114.695 49.1004 113.77 49.378Z" fill="#FFC700"/>
<path d="M138.44 115.776V114.768L140.132 114.516C140.492 114.468 140.744 114.324 140.888 114.084C141.032 113.868 141.104 113.448 141.104 112.824V93.636C141.104 92.724 141.032 92.1 140.888 91.764C140.744 91.428 140.396 91.224 139.844 91.152L138.152 90.972L138.296 89.928L143.048 89.532L143.408 89.712L143.516 92.7H143.588C144.092 91.86 144.644 91.188 145.244 90.684C145.868 90.18 146.552 89.82 147.296 89.604C148.04 89.364 148.82 89.244 149.636 89.244C151.124 89.244 152.396 89.592 153.452 90.288C154.532 90.984 155.36 92.016 155.936 93.384C156.512 94.728 156.8 96.408 156.8 98.424C156.8 100.512 156.464 102.312 155.792 103.824C155.12 105.336 154.16 106.5 152.912 107.316C151.664 108.108 150.176 108.504 148.448 108.504C147.608 108.504 146.756 108.384 145.892 108.144C145.028 107.928 144.284 107.64 143.66 107.28V112.824C143.66 113.376 143.732 113.772 143.876 114.012C144.02 114.276 144.32 114.432 144.776 114.48L147.008 114.768V115.776H138.44ZM148.376 107.028C149.504 107.028 150.488 106.74 151.328 106.164C152.192 105.564 152.864 104.652 153.344 103.428C153.824 102.204 154.064 100.62 154.064 98.676C154.064 96.828 153.848 95.34 153.416 94.212C153.008 93.084 152.42 92.268 151.652 91.764C150.884 91.236 149.972 90.972 148.916 90.972C147.884 90.972 146.972 91.188 146.18 91.62C145.388 92.052 144.764 92.664 144.308 93.456C143.876 94.248 143.66 95.196 143.66 96.3V105.444C144.236 105.9 144.944 106.284 145.784 106.596C146.648 106.884 147.512 107.028 148.376 107.028ZM165.642 108.504C164.106 108.504 162.882 108.084 161.97 107.244C161.058 106.404 160.602 105.228 160.602 103.716C160.602 102.42 160.914 101.364 161.538 100.548C162.186 99.732 163.266 99.12 164.778 98.712C166.29 98.28 168.354 98.016 170.97 97.92V94.752C170.97 93.744 170.814 92.928 170.502 92.304C170.19 91.68 169.734 91.224 169.134 90.936C168.558 90.648 167.826 90.504 166.938 90.504C166.17 90.504 165.438 90.624 164.742 90.864C164.046 91.08 163.518 91.368 163.158 91.728C163.422 92.16 163.638 92.52 163.806 92.808C163.974 93.096 164.082 93.336 164.13 93.528C164.202 93.696 164.238 93.852 164.238 93.996C164.238 94.404 164.07 94.752 163.734 95.04C163.422 95.304 163.002 95.436 162.474 95.436C161.946 95.436 161.526 95.292 161.214 95.004C160.902 94.692 160.746 94.26 160.746 93.708C160.746 92.844 161.058 92.076 161.682 91.404C162.306 90.732 163.11 90.204 164.094 89.82C165.102 89.436 166.146 89.244 167.226 89.244C168.714 89.244 169.914 89.484 170.826 89.964C171.762 90.444 172.446 91.152 172.878 92.088C173.31 93 173.526 94.116 173.526 95.436V104.832C173.526 105.504 173.67 105.996 173.958 106.308C174.246 106.62 174.654 106.776 175.182 106.776C175.494 106.776 175.794 106.74 176.082 106.668C176.394 106.572 176.706 106.452 177.018 106.308L177.342 107.136C176.91 107.568 176.418 107.904 175.866 108.144C175.338 108.384 174.798 108.504 174.246 108.504C173.334 108.504 172.602 108.24 172.05 107.712C171.522 107.184 171.222 106.368 171.15 105.264C170.718 106.008 170.226 106.62 169.674 107.1C169.122 107.58 168.51 107.928 167.838 108.144C167.166 108.384 166.434 108.504 165.642 108.504ZM166.578 106.776C167.37 106.776 168.09 106.608 168.738 106.272C169.41 105.912 169.95 105.432 170.358 104.832C170.766 104.208 170.97 103.476 170.97 102.636V99.18C169.122 99.204 167.622 99.36 166.47 99.648C165.342 99.912 164.514 100.344 163.986 100.944C163.482 101.544 163.23 102.348 163.23 103.356C163.23 104.484 163.53 105.336 164.13 105.912C164.754 106.488 165.57 106.776 166.578 106.776ZM179.053 108V106.992L180.781 106.74C181.189 106.668 181.453 106.524 181.573 106.308C181.693 106.068 181.753 105.648 181.753 105.048V92.628C181.753 92.076 181.693 91.692 181.573 91.476C181.477 91.236 181.225 91.092 180.817 91.044L178.945 90.756L179.125 89.748H187.405C188.653 89.748 189.757 89.892 190.717 90.18C191.677 90.444 192.433 90.876 192.985 91.476C193.537 92.076 193.813 92.892 193.813 93.924C193.813 95.1 193.405 96.084 192.589 96.876C191.797 97.668 190.681 98.172 189.241 98.388V98.424C190.273 98.496 191.209 98.688 192.049 99C192.913 99.312 193.597 99.78 194.101 100.404C194.605 101.004 194.857 101.796 194.857 102.78C194.857 103.884 194.557 104.832 193.957 105.624C193.357 106.416 192.493 107.016 191.365 107.424C190.237 107.808 188.857 108 187.225 108H179.053ZM187.333 106.74C188.269 106.74 189.097 106.608 189.817 106.344C190.561 106.08 191.137 105.66 191.545 105.084C191.953 104.484 192.157 103.716 192.157 102.78C192.157 101.604 191.737 100.716 190.897 100.116C190.081 99.516 188.953 99.216 187.513 99.216H184.309V106.56C184.789 106.632 185.269 106.68 185.749 106.704C186.253 106.728 186.781 106.74 187.333 106.74ZM184.309 97.884H187.261C188.509 97.884 189.457 97.56 190.105 96.912C190.777 96.264 191.113 95.376 191.113 94.248C191.113 93.024 190.741 92.184 189.997 91.728C189.277 91.248 188.257 91.008 186.937 91.008C186.457 91.008 185.977 91.02 185.497 91.044C185.041 91.068 184.645 91.092 184.309 91.116V97.884ZM206.386 108.504C204.658 108.504 203.17 108.12 201.922 107.352C200.698 106.584 199.75 105.504 199.078 104.112C198.43 102.72 198.106 101.064 198.106 99.144C198.106 97.104 198.442 95.352 199.114 93.888C199.81 92.4 200.806 91.26 202.102 90.468C203.422 89.652 204.982 89.244 206.782 89.244C208.462 89.244 209.902 89.628 211.102 90.396C212.302 91.14 213.226 92.196 213.874 93.564C214.522 94.932 214.846 96.552 214.846 98.424C214.846 100.488 214.51 102.276 213.838 103.788C213.166 105.3 212.194 106.464 210.922 107.28C209.674 108.096 208.162 108.504 206.386 108.504ZM206.782 107.064C207.934 107.064 208.894 106.776 209.662 106.2C210.454 105.6 211.054 104.712 211.462 103.536C211.894 102.36 212.11 100.896 212.11 99.144C212.11 97.728 211.978 96.492 211.714 95.436C211.45 94.38 211.078 93.504 210.598 92.808C210.118 92.088 209.518 91.548 208.798 91.188C208.078 90.828 207.262 90.648 206.35 90.648C205.174 90.648 204.178 90.936 203.362 91.512C202.546 92.064 201.922 92.916 201.49 94.068C201.058 95.196 200.842 96.648 200.842 98.424C200.842 100.32 201.082 101.916 201.562 103.212C202.042 104.484 202.726 105.444 203.614 106.092C204.502 106.74 205.558 107.064 206.782 107.064ZM218.287 108V106.992L220.015 106.74C220.423 106.668 220.687 106.524 220.807 106.308C220.927 106.068 220.987 105.648 220.987 105.048V92.628C220.987 92.076 220.927 91.692 220.807 91.476C220.711 91.236 220.459 91.092 220.051 91.044L218.179 90.756L218.359 89.748H226.639C227.887 89.748 228.991 89.892 229.951 90.18C230.911 90.444 231.667 90.876 232.219 91.476C232.771 92.076 233.047 92.892 233.047 93.924C233.047 95.1 232.639 96.084 231.823 96.876C231.031 97.668 229.915 98.172 228.475 98.388V98.424C229.507 98.496 230.443 98.688 231.283 99C232.147 99.312 232.831 99.78 233.335 100.404C233.839 101.004 234.091 101.796 234.091 102.78C234.091 103.884 233.791 104.832 233.191 105.624C232.591 106.416 231.727 107.016 230.599 107.424C229.471 107.808 228.091 108 226.459 108H218.287ZM226.567 106.74C227.503 106.74 228.331 106.608 229.051 106.344C229.795 106.08 230.371 105.66 230.779 105.084C231.187 104.484 231.391 103.716 231.391 102.78C231.391 101.604 230.971 100.716 230.131 100.116C229.315 99.516 228.187 99.216 226.747 99.216H223.543V106.56C224.023 106.632 224.503 106.68 224.983 106.704C225.487 106.728 226.015 106.74 226.567 106.74ZM223.543 97.884H226.495C227.743 97.884 228.691 97.56 229.339 96.912C230.011 96.264 230.347 95.376 230.347 94.248C230.347 93.024 229.975 92.184 229.231 91.728C228.511 91.248 227.491 91.008 226.171 91.008C225.691 91.008 225.211 91.02 224.731 91.044C224.275 91.068 223.879 91.092 223.543 91.116V97.884ZM237.412 108V106.992L239.176 106.74C239.608 106.668 239.872 106.512 239.968 106.272C240.064 106.008 240.112 105.588 240.112 105.012V92.664C240.112 92.088 240.064 91.692 239.968 91.476C239.872 91.236 239.62 91.092 239.212 91.044L237.304 90.756L237.484 89.748H245.512V90.756L243.604 91.044C243.196 91.116 242.932 91.272 242.812 91.512C242.716 91.752 242.668 92.136 242.668 92.664V97.452C243.388 97.332 244.024 97.248 244.576 97.2C245.152 97.128 245.788 97.092 246.484 97.092C247.756 97.092 248.86 97.296 249.796 97.704C250.756 98.088 251.5 98.64 252.028 99.36C252.556 100.08 252.82 100.98 252.82 102.06C252.82 103.452 252.484 104.592 251.812 105.48C251.14 106.344 250.204 106.98 249.004 107.388C247.804 107.796 246.388 108 244.756 108H237.412ZM245.116 106.812C246.7 106.812 247.936 106.44 248.824 105.696C249.712 104.952 250.156 103.824 250.156 102.312C250.156 101.016 249.736 100.044 248.896 99.396C248.08 98.724 246.952 98.388 245.512 98.388C244.96 98.388 244.468 98.412 244.036 98.46C243.604 98.508 243.148 98.568 242.668 98.64V106.596C243.076 106.668 243.46 106.728 243.82 106.776C244.18 106.8 244.612 106.812 245.116 106.812ZM254.044 108V106.992L255.772 106.74C256.204 106.668 256.468 106.512 256.564 106.272C256.684 106.032 256.744 105.636 256.744 105.084V92.592C256.744 92.04 256.684 91.656 256.564 91.44C256.468 91.224 256.216 91.08 255.808 91.008L253.936 90.756L254.116 89.748H262.144V90.756L260.272 91.044C259.864 91.092 259.6 91.236 259.48 91.476C259.36 91.716 259.3 92.1 259.3 92.628V105.192C259.3 105.72 259.36 106.092 259.48 106.308C259.6 106.524 259.864 106.656 260.272 106.704L262.18 106.992V108H254.044ZM273.457 108.504C271.849 108.504 270.445 108.144 269.245 107.424C268.069 106.68 267.145 105.6 266.473 104.184C265.825 102.768 265.501 101.052 265.501 99.036C265.501 97.044 265.825 95.316 266.473 93.852C267.145 92.388 268.081 91.26 269.281 90.468C270.505 89.652 271.933 89.244 273.565 89.244C274.909 89.244 276.049 89.508 276.985 90.036C277.921 90.564 278.641 91.308 279.145 92.268C279.649 93.204 279.901 94.296 279.901 95.544C279.901 96 279.877 96.492 279.829 97.02C279.805 97.524 279.745 98.052 279.649 98.604H268.201C268.201 100.404 268.453 101.892 268.957 103.068C269.461 104.22 270.157 105.072 271.045 105.624C271.957 106.152 272.989 106.416 274.141 106.416C275.101 106.416 276.013 106.248 276.877 105.912C277.741 105.552 278.557 105 279.325 104.256L280.081 105.012C279.217 106.188 278.209 107.064 277.057 107.64C275.929 108.216 274.729 108.504 273.457 108.504ZM268.201 97.236H277.237C277.285 96.924 277.309 96.624 277.309 96.336C277.333 96.048 277.345 95.736 277.345 95.4C277.345 93.792 277.009 92.58 276.337 91.764C275.689 90.948 274.705 90.54 273.385 90.54C272.377 90.54 271.501 90.78 270.757 91.26C270.037 91.74 269.461 92.484 269.029 93.492C268.597 94.476 268.321 95.724 268.201 97.236Z" fill="#FFEEE2"/>
<path d="M92.648 144.504C91.04 144.504 89.636 144.144 88.436 143.424C87.26 142.68 86.336 141.6 85.664 140.184C85.016 138.768 84.692 137.052 84.692 135.036C84.692 133.044 85.016 131.316 85.664 129.852C86.336 128.388 87.272 127.26 88.472 126.468C89.696 125.652 91.124 125.244 92.756 125.244C94.1 125.244 95.24 125.508 96.176 126.036C97.112 126.564 97.832 127.308 98.336 128.268C98.84 129.204 99.092 130.296 99.092 131.544C99.092 132 99.068 132.492 99.02 133.02C98.996 133.524 98.936 134.052 98.84 134.604H87.392C87.392 136.404 87.644 137.892 88.148 139.068C88.652 140.22 89.348 141.072 90.236 141.624C91.148 142.152 92.18 142.416 93.332 142.416C94.292 142.416 95.204 142.248 96.068 141.912C96.932 141.552 97.748 141 98.516 140.256L99.272 141.012C98.408 142.188 97.4 143.064 96.248 143.64C95.12 144.216 93.92 144.504 92.648 144.504ZM87.392 133.236H96.428C96.476 132.924 96.5 132.624 96.5 132.336C96.524 132.048 96.536 131.736 96.536 131.4C96.536 129.792 96.2 128.58 95.528 127.764C94.88 126.948 93.896 126.54 92.576 126.54C91.568 126.54 90.692 126.78 89.948 127.26C89.228 127.74 88.652 128.484 88.22 129.492C87.788 130.476 87.512 131.724 87.392 133.236ZM102.412 144V142.992L104.212 142.704C104.596 142.632 104.848 142.488 104.968 142.272C105.112 142.056 105.184 141.672 105.184 141.12V128.664C105.184 128.064 105.124 127.656 105.004 127.44C104.908 127.224 104.668 127.092 104.284 127.044L102.376 126.756L102.556 125.748H110.584V126.756L108.64 127.044C108.28 127.092 108.04 127.236 107.92 127.476C107.8 127.692 107.74 128.088 107.74 128.664V142.704H116.2V128.556C116.2 128.004 116.128 127.632 115.984 127.44C115.864 127.224 115.588 127.08 115.156 127.008L113.32 126.756L113.5 125.748H121.456V126.756L119.8 127.008C119.368 127.08 119.08 127.224 118.936 127.44C118.816 127.632 118.756 128.016 118.756 128.592V142.704H127.216V128.556C127.216 128.004 127.144 127.632 127 127.44C126.88 127.224 126.604 127.08 126.172 127.008L124.3 126.756L124.48 125.748H132.472V126.756L130.816 127.008C130.384 127.08 130.096 127.224 129.952 127.44C129.832 127.632 129.772 128.016 129.772 128.592V141.156C129.772 141.708 129.832 142.092 129.952 142.308C130.096 142.524 130.396 142.668 130.852 142.74L132.508 142.992V144H102.412ZM143.765 144.504C142.157 144.504 140.753 144.144 139.553 143.424C138.377 142.68 137.453 141.6 136.781 140.184C136.133 138.768 135.809 137.052 135.809 135.036C135.809 133.044 136.133 131.316 136.781 129.852C137.453 128.388 138.389 127.26 139.589 126.468C140.813 125.652 142.241 125.244 143.873 125.244C145.217 125.244 146.357 125.508 147.293 126.036C148.229 126.564 148.949 127.308 149.453 128.268C149.957 129.204 150.209 130.296 150.209 131.544C150.209 132 150.185 132.492 150.137 133.02C150.113 133.524 150.053 134.052 149.957 134.604H138.509C138.509 136.404 138.761 137.892 139.265 139.068C139.769 140.22 140.465 141.072 141.353 141.624C142.265 142.152 143.297 142.416 144.449 142.416C145.409 142.416 146.321 142.248 147.185 141.912C148.049 141.552 148.865 141 149.633 140.256L150.389 141.012C149.525 142.188 148.517 143.064 147.365 143.64C146.237 144.216 145.037 144.504 143.765 144.504ZM138.509 133.236H147.545C147.593 132.924 147.617 132.624 147.617 132.336C147.641 132.048 147.653 131.736 147.653 131.4C147.653 129.792 147.317 128.58 146.645 127.764C145.997 126.948 145.013 126.54 143.693 126.54C142.685 126.54 141.809 126.78 141.065 127.26C140.345 127.74 139.769 128.484 139.337 129.492C138.905 130.476 138.629 131.724 138.509 133.236ZM153.565 144V142.992L155.329 142.74C155.713 142.668 155.965 142.524 156.085 142.308C156.205 142.068 156.265 141.636 156.265 141.012V128.664C156.265 128.064 156.205 127.656 156.085 127.44C155.989 127.224 155.749 127.092 155.365 127.044L153.457 126.756L153.637 125.748H161.665V126.756L159.757 127.044C159.373 127.092 159.121 127.236 159.001 127.476C158.881 127.692 158.821 128.088 158.821 128.664V134.064H168.397V128.556C168.397 128.004 168.325 127.632 168.181 127.44C168.061 127.224 167.797 127.08 167.389 127.008L165.517 126.756L165.697 125.748H173.653V126.756L171.997 127.008C171.565 127.08 171.277 127.224 171.133 127.44C171.013 127.632 170.953 128.016 170.953 128.592V141.228C170.953 141.756 171.013 142.128 171.133 142.344C171.277 142.536 171.565 142.668 171.997 142.74L173.725 142.992V144H165.625V142.992L167.353 142.74C167.785 142.692 168.061 142.56 168.181 142.344C168.325 142.128 168.397 141.732 168.397 141.156V135.396H158.821V141.156C158.821 141.708 158.881 142.092 159.001 142.308C159.121 142.524 159.361 142.656 159.721 142.704L161.701 143.028V144H153.565ZM177.119 144V142.992L178.883 142.74C179.267 142.668 179.519 142.524 179.639 142.308C179.759 142.068 179.819 141.636 179.819 141.012V128.664C179.819 128.064 179.759 127.656 179.639 127.44C179.543 127.224 179.303 127.092 178.919 127.044L177.011 126.756L177.191 125.748H185.219V126.756L183.311 127.044C182.927 127.092 182.675 127.236 182.555 127.476C182.435 127.692 182.375 128.088 182.375 128.664V138.564L191.915 129.204V128.556C191.915 128.004 191.855 127.632 191.735 127.44C191.615 127.224 191.339 127.08 190.907 127.008L189.035 126.756L189.215 125.748H197.207V126.756L195.515 127.008C195.083 127.08 194.795 127.224 194.651 127.44C194.531 127.632 194.471 128.016 194.471 128.592V141.228C194.471 141.756 194.531 142.128 194.651 142.344C194.795 142.536 195.083 142.668 195.515 142.74L197.243 142.992V144H189.179V142.992L190.871 142.74C191.327 142.692 191.615 142.56 191.735 142.344C191.855 142.128 191.915 141.732 191.915 141.156V131.004L182.375 140.364V141.156C182.375 141.708 182.435 142.092 182.555 142.308C182.675 142.524 182.915 142.656 183.275 142.704L185.255 143.028V144H177.119ZM202.295 144.432C201.743 144.432 201.239 144.312 200.783 144.072C200.327 143.832 199.871 143.508 199.415 143.1L199.703 142.272C199.871 142.392 200.051 142.488 200.243 142.56C200.435 142.632 200.675 142.668 200.963 142.668C201.371 142.668 201.707 142.572 201.971 142.38C202.259 142.188 202.535 141.852 202.799 141.372C203.063 140.868 203.363 140.148 203.699 139.212C203.963 138.54 204.275 137.964 204.635 137.484C204.995 137.004 205.451 136.608 206.003 136.296C206.579 135.96 207.251 135.72 208.019 135.576V135.54C206.699 135.396 205.619 135.12 204.779 134.712C203.939 134.28 203.327 133.728 202.943 133.056C202.559 132.384 202.367 131.616 202.367 130.752C202.367 129.672 202.655 128.76 203.231 128.016C203.831 127.272 204.659 126.708 205.715 126.324C206.795 125.94 208.031 125.748 209.423 125.748H217.847V126.756L216.191 127.008C215.759 127.08 215.471 127.224 215.327 127.44C215.207 127.632 215.147 128.016 215.147 128.592V141.228C215.147 141.756 215.207 142.128 215.327 142.344C215.471 142.536 215.759 142.668 216.191 142.74L217.883 142.992V144H209.819V142.992L211.547 142.74C211.979 142.692 212.255 142.56 212.375 142.344C212.519 142.128 212.591 141.732 212.591 141.156V136.008C212.327 136.008 212.015 136.008 211.655 136.008C211.295 136.008 210.923 136.02 210.539 136.044C210.179 136.044 209.843 136.068 209.531 136.116C208.907 136.188 208.391 136.356 207.983 136.62C207.599 136.86 207.263 137.268 206.975 137.844C206.711 138.396 206.435 139.164 206.147 140.148C205.763 141.252 205.379 142.116 204.995 142.74C204.635 143.364 204.239 143.796 203.807 144.036C203.399 144.3 202.895 144.432 202.295 144.432ZM209.999 134.712H212.591V127.152C212.135 127.08 211.667 127.032 211.187 127.008C210.731 126.984 210.239 126.972 209.711 126.972C208.751 126.972 207.911 127.128 207.191 127.44C206.495 127.752 205.955 128.196 205.571 128.772C205.211 129.348 205.031 130.044 205.031 130.86C205.031 132.108 205.451 133.068 206.291 133.74C207.131 134.388 208.367 134.712 209.999 134.712Z" fill="#FFEEE2"/>
<defs>
<linearGradient id="paint0_linear_363_201" x1="23.2961" y1="44.4605" x2="110.105" y2="44.4605" gradientUnits="userSpaceOnUse">
<stop stop-color="#FFC700"/>
<stop offset="0.586458" stop-color="#F5DD88"/>
<stop offset="1" stop-color="#FFC700"/>
</linearGradient>
<linearGradient id="paint1_linear_363_201" x1="90.0494" y1="102.533" x2="133.155" y2="102.533" gradientUnits="userSpaceOnUse">
<stop stop-color="#FFC700"/>
<stop offset="0.664583" stop-color="#F5DD88"/>
<stop offset="1" stop-color="#FFC700"/>
</linearGradient>
<linearGradient id="paint2_linear_363_201" x1="0.845434" y1="102.533" x2="43.9507" y2="102.533" gradientUnits="userSpaceOnUse">
<stop stop-color="#FFC700"/>
<stop offset="0.664583" stop-color="#F5DD88"/>
<stop offset="1" stop-color="#FFC700"/>
</linearGradient>
</defs>
</svg>
