<svg width="213" height="130" viewBox="0 0 213 130" fill="none" xmlns="http://www.w3.org/2000/svg">
<g filter="url(#filter0_b_491_82)">
<circle cx="65" cy="65" r="65" fill="url(#paint0_linear_491_82)" fill-opacity="0.25"/>
</g>
<path fill-rule="evenodd" clip-rule="evenodd" d="M65.7222 107.972L66.0368 110.489C66.0672 110.732 66.1651 110.962 66.3195 111.153C66.4904 111.363 66.7225 111.516 66.9838 111.589L68.2451 111.943C68.2483 111.944 68.2516 111.945 68.2549 111.945L71.7459 112.262C72.0471 112.29 72.3197 112.452 72.4874 112.704L72.5052 112.73C72.7626 113.116 72.7207 113.629 72.404 113.968L71.7964 114.618C71.6073 114.821 71.3426 114.936 71.0656 114.936H56.0454C55.7683 114.936 55.5037 114.821 55.3146 114.618L54.7069 113.968C54.3903 113.629 54.3484 113.116 54.6057 112.73L54.6188 112.711C54.7892 112.455 55.0678 112.292 55.3741 112.268L59.5793 111.945C59.5819 111.945 59.5845 111.944 59.5871 111.944L60.8974 111.604C61.212 111.522 61.4813 111.319 61.6457 111.039C61.7147 110.921 61.7635 110.793 61.7903 110.659L61.9772 109.725C62.0662 109.28 62.111 108.827 62.111 108.373V32.139L62.3705 26.6891C62.4381 25.2698 62.6359 23.8597 62.9613 22.4766L63.3003 21.0359C63.7079 19.3037 64.4209 17.658 65.406 16.1761L65.8029 15.579C66.3198 14.8013 66.944 14.1004 67.6569 13.4972L67.7458 13.422C68.8297 12.5049 70.107 11.8448 71.4821 11.4912L71.555 11.4724C72.2725 11.2879 73.0104 11.1946 73.7513 11.1946H74.2183C75.2803 11.1946 76.3278 11.4418 77.2777 11.9168C78.2276 12.3918 79.0539 13.0814 79.6911 13.931L80.1387 14.5278C80.6368 15.192 81.0503 15.9156 81.3696 16.6819L81.5832 17.1946C82.3167 18.9549 82.6943 20.8431 82.6943 22.7501V23.8335L82.4811 25.5393C82.3827 26.3268 82.2237 27.1056 82.0057 27.8687L81.97 27.9937C81.7312 28.8295 81.4154 29.6414 81.0266 30.4189L80.9663 30.5395C80.6744 31.1234 80.3366 31.6834 79.9561 32.214L79.3958 32.9955C79.1882 33.285 78.9464 33.5485 78.6756 33.7801C78.0001 34.3578 77.1662 34.7188 76.2827 34.8159L76.1081 34.8351C75.45 34.9075 74.784 34.8483 74.1489 34.661L73.9642 34.6065C73.2896 34.4075 72.6556 34.0906 72.0916 33.6704L71.8216 33.4693C71.792 33.4472 71.7509 33.4488 71.7231 33.4731L70.0413 34.9448L69.1003 35.655C67.4757 36.8812 66.3453 38.6498 65.9146 40.6391C65.7867 41.23 65.7222 41.8328 65.7222 42.4373V107.972ZM66.5822 33.7015V30.7084C66.5822 28.6361 66.7592 26.5676 67.1113 24.5255L67.2967 23.4501C67.5406 22.036 67.9098 20.6465 68.4002 19.2979L68.9707 17.729C69.251 16.9581 69.6227 16.2236 70.0777 15.5411L70.7469 14.5372C70.9951 14.165 71.3088 13.841 71.6729 13.5809L72.0984 13.277C72.4478 13.0274 72.8664 12.8933 73.2957 12.8933C73.842 12.8933 74.366 13.1103 74.7523 13.4966L75.4062 14.1505C75.8594 14.6038 76.2054 15.1527 76.4187 15.7572L76.9263 17.1954C77.2354 18.0711 77.4325 18.9824 77.513 19.9076L77.8242 23.4867V26.3284C77.8242 27.4532 77.6428 28.5707 77.2871 29.6379L77.0672 30.2975C76.9955 30.5126 76.9028 30.7201 76.7903 30.917L76.4784 31.4627C76.2324 31.8933 75.8277 32.2106 75.3509 32.3468C74.8588 32.4874 74.3308 32.4235 73.8864 32.1696L73.6114 32.0125C73.254 31.8083 72.9491 31.5236 72.7208 31.1811L72.2313 30.447C72.2149 30.4223 72.1835 30.4122 72.1557 30.4226L71.905 30.5166C70.9617 30.8703 70.1051 31.422 69.3927 32.1343L67.8628 34.135C67.4482 34.6771 66.5822 34.384 66.5822 33.7015Z" fill="url(#paint1_linear_491_82)"/>
<path d="M63.1943 44.0556L88.1903 43.6263C88.5471 43.6202 88.8332 43.3291 88.8332 42.9722C88.8332 42.6154 88.5471 42.3243 88.1903 42.3182L63.1943 41.8889L38.1983 42.3182C37.8415 42.3243 37.5554 42.6154 37.5554 42.9722C37.5554 43.3291 37.8415 43.6202 38.1983 43.6263L63.1943 44.0556Z" fill="url(#paint2_linear_491_82)"/>
<line y1="-1" x2="40.976" y2="-1" transform="matrix(0.31319 -0.94969 0.933743 0.357945 74.7192 84.02)" stroke="#FFC700" stroke-width="2" stroke-dasharray="1.6 1.6"/>
<line y1="-1" x2="41.3868" y2="-1" transform="matrix(0.310081 0.95071 -0.935053 0.354508 88.7556 45.1055)" stroke="#FFC700" stroke-width="2" stroke-dasharray="1.6 1.6"/>
<path d="M73.0204 84.6686L72.8042 83.5876H103.72L103.503 85.101L103.287 85.7496L102.855 86.3981H73.8135L73.4528 85.7496L73.0204 84.6686Z" fill="url(#paint3_linear_491_82)"/>
<path d="M75.1825 87.6952L74.1016 86.6143H102.639L101.558 87.9114L100.261 88.56H76.4797L75.1825 87.6952Z" fill="#FFC700"/>
<line y1="-1" x2="40.9759" y2="-1" transform="matrix(0.313188 -0.949691 0.933742 0.357947 25.7483 84.02)" stroke="#FFC700" stroke-width="2" stroke-dasharray="1.6 1.6"/>
<line y1="-1" x2="41.3868" y2="-1" transform="matrix(0.310079 0.950711 -0.935052 0.35451 39.7844 45.1055)" stroke="#FFC700" stroke-width="2" stroke-dasharray="1.6 1.6"/>
<path d="M24.0494 84.6686L23.8333 83.5876H54.7486L54.5324 85.101L54.3163 85.7496L53.8839 86.3981H24.8425L24.4818 85.7496L24.0494 84.6686Z" fill="url(#paint4_linear_491_82)"/>
<path d="M26.2116 87.6952L25.1306 86.6143H53.6679L52.5869 87.9114L51.2898 88.56H27.5087L26.2116 87.6952Z" fill="#FFC700"/>
<path d="M40.7484 46.0628L40.2943 46.199C39.8459 46.3335 39.3755 46.3788 38.9097 46.3322L38.762 46.3174C37.9232 46.2336 37.1509 45.8238 36.6113 45.1762C36.4525 44.9857 36.3163 44.7774 36.2054 44.5556L36.0674 44.2795C35.7017 43.5481 35.5508 42.728 35.6321 41.9143L35.658 41.6553C35.7014 41.222 35.8354 40.8025 36.0515 40.4244C36.3993 39.8159 36.9427 39.343 37.5935 39.0827L37.7731 39.0108C38.4117 38.7554 39.1094 38.6851 39.7861 38.8082L40.1892 38.8815C40.8039 38.9932 41.3769 39.2695 41.8471 39.681C42.4974 40.25 42.911 41.0419 43.0064 41.9007L43.0743 42.5113V42.9368C43.0743 43.6429 42.8452 44.33 42.4215 44.895C42.003 45.4531 41.4166 45.8624 40.7484 46.0628Z" fill="#FFC700"/>
<path d="M89.7193 46.4952L89.2653 46.6314C88.8169 46.7659 88.3465 46.8112 87.8807 46.7646L87.7329 46.7498C86.8942 46.6659 86.1219 46.2561 85.5822 45.6086C85.4235 45.418 85.2873 45.2098 85.1763 44.9879L85.0383 44.7119C84.6726 43.9805 84.5217 43.1604 84.6031 42.3467L84.629 42.0877C84.6723 41.6543 84.8064 41.2349 85.0225 40.8568C85.3702 40.2482 85.9137 39.7753 86.5644 39.515L86.744 39.4432C87.3827 39.1877 88.0803 39.1175 88.757 39.2405L89.1601 39.3138C89.7749 39.4256 90.3478 39.7019 90.818 40.1134C91.4683 40.6824 91.882 41.4743 91.9774 42.3331L92.0452 42.9437V43.3691C92.0452 44.0753 91.8162 44.7624 91.3925 45.3274C90.9739 45.8854 90.3875 46.2947 89.7193 46.4952Z" fill="#FFC700"/>
<path d="M110.792 93.184V92.032L111.872 91.864C112.112 91.832 112.28 91.736 112.376 91.576C112.488 91.416 112.544 91.136 112.544 90.736V78.712C112.544 78.12 112.488 77.728 112.376 77.536C112.264 77.344 112.032 77.224 111.68 77.176L110.624 77.056L110.792 75.856L114.584 75.616L114.896 75.76L115.04 77.848H115.112C115.448 77.304 115.824 76.856 116.24 76.504C116.656 76.152 117.12 75.888 117.632 75.712C118.144 75.52 118.704 75.424 119.312 75.424C120.32 75.424 121.176 75.664 121.88 76.144C122.584 76.608 123.128 77.288 123.512 78.184C123.912 79.08 124.112 80.176 124.112 81.472C124.112 82.896 123.888 84.12 123.44 85.144C123.008 86.168 122.36 86.96 121.496 87.52C120.648 88.064 119.6 88.336 118.352 88.336C117.792 88.336 117.232 88.264 116.672 88.12C116.112 87.992 115.648 87.808 115.28 87.568V90.688C115.28 91.072 115.336 91.344 115.448 91.504C115.56 91.68 115.768 91.792 116.072 91.84L117.512 92.056V93.184H110.792ZM118.064 86.752C118.72 86.752 119.28 86.568 119.744 86.2C120.208 85.832 120.56 85.28 120.8 84.544C121.04 83.808 121.16 82.88 121.16 81.76C121.16 80.72 121.056 79.864 120.848 79.192C120.64 78.52 120.328 78.024 119.912 77.704C119.496 77.368 118.976 77.2 118.352 77.2C117.712 77.2 117.16 77.336 116.696 77.608C116.248 77.88 115.896 78.264 115.64 78.76C115.4 79.24 115.28 79.824 115.28 80.512V85.768C115.584 86.056 115.992 86.296 116.504 86.488C117.032 86.664 117.552 86.752 118.064 86.752ZM129.725 88.336C128.669 88.336 127.829 88.04 127.205 87.448C126.597 86.856 126.293 86.072 126.293 85.096C126.293 84.2 126.517 83.488 126.965 82.96C127.413 82.416 128.141 82.008 129.149 81.736C130.157 81.448 131.501 81.272 133.181 81.208V79.36C133.181 78.72 133.093 78.2 132.917 77.8C132.757 77.4 132.501 77.104 132.149 76.912C131.813 76.72 131.357 76.624 130.781 76.624C130.349 76.624 129.925 76.688 129.509 76.816C129.093 76.944 128.773 77.112 128.549 77.32C128.725 77.576 128.869 77.808 128.981 78.016C129.093 78.208 129.165 78.368 129.197 78.496C129.245 78.608 129.269 78.72 129.269 78.832C129.269 79.136 129.133 79.4 128.861 79.624C128.605 79.848 128.261 79.96 127.829 79.96C127.365 79.96 127.005 79.848 126.749 79.624C126.493 79.384 126.365 79.056 126.365 78.64C126.365 78.064 126.581 77.536 127.013 77.056C127.461 76.56 128.045 76.168 128.765 75.88C129.501 75.592 130.317 75.448 131.213 75.448C132.269 75.448 133.141 75.608 133.829 75.928C134.533 76.232 135.053 76.712 135.389 77.368C135.741 78.024 135.917 78.848 135.917 79.84V85.504C135.917 85.872 136.005 86.152 136.181 86.344C136.357 86.52 136.605 86.608 136.925 86.608C137.101 86.608 137.277 86.592 137.453 86.56C137.629 86.512 137.821 86.456 138.029 86.392L138.269 87.304C137.949 87.608 137.565 87.856 137.117 88.048C136.669 88.24 136.237 88.336 135.821 88.336C135.101 88.336 134.541 88.152 134.141 87.784C133.757 87.416 133.517 86.888 133.421 86.2C133.149 86.664 132.837 87.056 132.485 87.376C132.133 87.696 131.725 87.936 131.261 88.096C130.813 88.256 130.301 88.336 129.725 88.336ZM130.853 86.656C131.301 86.656 131.701 86.56 132.053 86.368C132.405 86.16 132.677 85.88 132.869 85.528C133.077 85.16 133.181 84.752 133.181 84.304V82.408C132.237 82.408 131.461 82.496 130.853 82.672C130.245 82.832 129.797 83.088 129.509 83.44C129.221 83.776 129.077 84.224 129.077 84.784C129.077 85.376 129.229 85.84 129.533 86.176C129.853 86.496 130.293 86.656 130.853 86.656ZM139.488 88V86.848L140.592 86.656C140.848 86.624 141.016 86.536 141.096 86.392C141.176 86.232 141.216 85.944 141.216 85.528V78.16C141.216 77.808 141.176 77.56 141.096 77.416C141.032 77.256 140.872 77.152 140.616 77.104L139.416 76.888L139.608 75.76H145.848C146.776 75.76 147.576 75.856 148.248 76.048C148.936 76.224 149.464 76.52 149.832 76.936C150.2 77.336 150.384 77.88 150.384 78.568C150.384 79.32 150.104 79.96 149.544 80.488C148.984 81.016 148.176 81.36 147.12 81.52V81.544C147.856 81.592 148.512 81.712 149.088 81.904C149.68 82.08 150.152 82.376 150.504 82.792C150.872 83.192 151.056 83.752 151.056 84.472C151.056 85.128 150.872 85.728 150.504 86.272C150.152 86.8 149.584 87.224 148.8 87.544C148.016 87.848 146.976 88 145.68 88H139.488ZM145.656 86.8C146.12 86.8 146.544 86.72 146.928 86.56C147.328 86.384 147.64 86.12 147.864 85.768C148.088 85.416 148.2 84.968 148.2 84.424C148.2 83.816 148 83.312 147.6 82.912C147.2 82.512 146.6 82.312 145.8 82.312H143.952V86.704C144.24 86.736 144.528 86.76 144.816 86.776C145.104 86.792 145.384 86.8 145.656 86.8ZM143.952 81.064H145.608C146.264 81.064 146.752 80.856 147.072 80.44C147.392 80.024 147.552 79.496 147.552 78.856C147.552 78.152 147.352 77.656 146.952 77.368C146.568 77.08 146.016 76.936 145.296 76.936C145.072 76.936 144.84 76.944 144.6 76.96C144.36 76.96 144.144 76.976 143.952 77.008V81.064ZM159.103 88.336C157.871 88.336 156.799 88.088 155.887 87.592C154.991 87.096 154.295 86.384 153.799 85.456C153.319 84.528 153.079 83.424 153.079 82.144C153.079 80.736 153.335 79.536 153.847 78.544C154.375 77.536 155.119 76.768 156.079 76.24C157.039 75.696 158.167 75.424 159.463 75.424C160.663 75.424 161.703 75.672 162.583 76.168C163.463 76.648 164.143 77.344 164.623 78.256C165.103 79.168 165.343 80.272 165.343 81.568C165.343 82.96 165.087 84.168 164.575 85.192C164.079 86.2 163.359 86.976 162.415 87.52C161.487 88.064 160.383 88.336 159.103 88.336ZM159.439 86.848C160.095 86.848 160.639 86.68 161.071 86.344C161.519 85.992 161.847 85.464 162.055 84.76C162.279 84.056 162.391 83.176 162.391 82.12C162.391 81.256 162.311 80.496 162.151 79.84C162.007 79.184 161.791 78.64 161.503 78.208C161.215 77.76 160.863 77.424 160.447 77.2C160.047 76.976 159.591 76.864 159.079 76.864C158.423 76.864 157.871 77.032 157.423 77.368C156.975 77.688 156.631 78.184 156.391 78.856C156.151 79.528 156.031 80.384 156.031 81.424C156.031 82.608 156.167 83.6 156.439 84.4C156.711 85.2 157.103 85.808 157.615 86.224C158.127 86.64 158.735 86.848 159.439 86.848ZM167.543 88V86.848L168.647 86.656C168.903 86.624 169.071 86.536 169.151 86.392C169.231 86.232 169.271 85.944 169.271 85.528V78.16C169.271 77.808 169.231 77.56 169.151 77.416C169.087 77.256 168.927 77.152 168.671 77.104L167.471 76.888L167.663 75.76H173.903C174.831 75.76 175.631 75.856 176.303 76.048C176.991 76.224 177.519 76.52 177.887 76.936C178.255 77.336 178.439 77.88 178.439 78.568C178.439 79.32 178.159 79.96 177.599 80.488C177.039 81.016 176.231 81.36 175.175 81.52V81.544C175.911 81.592 176.567 81.712 177.143 81.904C177.735 82.08 178.207 82.376 178.559 82.792C178.927 83.192 179.111 83.752 179.111 84.472C179.111 85.128 178.927 85.728 178.559 86.272C178.207 86.8 177.639 87.224 176.855 87.544C176.071 87.848 175.031 88 173.735 88H167.543ZM173.711 86.8C174.175 86.8 174.599 86.72 174.983 86.56C175.383 86.384 175.695 86.12 175.919 85.768C176.143 85.416 176.255 84.968 176.255 84.424C176.255 83.816 176.055 83.312 175.655 82.912C175.255 82.512 174.655 82.312 173.855 82.312H172.007V86.704C172.295 86.736 172.583 86.76 172.871 86.776C173.159 86.792 173.439 86.8 173.711 86.8ZM172.007 81.064H173.663C174.319 81.064 174.807 80.856 175.127 80.44C175.447 80.024 175.607 79.496 175.607 78.856C175.607 78.152 175.407 77.656 175.007 77.368C174.623 77.08 174.071 76.936 173.351 76.936C173.127 76.936 172.895 76.944 172.655 76.96C172.415 76.96 172.199 76.976 172.007 77.008V81.064ZM181.254 88V86.848L182.334 86.656C182.638 86.608 182.814 86.496 182.862 86.32C182.926 86.144 182.958 85.88 182.958 85.528V78.16C182.958 77.808 182.926 77.56 182.862 77.416C182.798 77.256 182.63 77.152 182.358 77.104L181.182 76.888L181.374 75.76H187.518V76.888L186.342 77.104C186.054 77.152 185.87 77.264 185.79 77.44C185.726 77.616 185.694 77.872 185.694 78.208V80.68C186.158 80.6 186.558 80.552 186.894 80.536C187.23 80.504 187.638 80.488 188.118 80.488C189.03 80.488 189.814 80.632 190.47 80.92C191.126 81.192 191.63 81.584 191.982 82.096C192.334 82.592 192.51 83.184 192.51 83.872C192.51 84.928 192.246 85.76 191.718 86.368C191.206 86.96 190.494 87.384 189.582 87.64C188.67 87.88 187.614 88 186.414 88H181.254ZM186.894 86.824C187.774 86.824 188.454 86.6 188.934 86.152C189.43 85.704 189.678 85.032 189.678 84.136C189.678 83.352 189.438 82.768 188.958 82.384C188.494 81.984 187.878 81.784 187.11 81.784C186.838 81.784 186.606 81.792 186.414 81.808C186.222 81.824 185.982 81.848 185.694 81.88V86.704C185.918 86.752 186.118 86.784 186.294 86.8C186.47 86.816 186.67 86.824 186.894 86.824ZM192.99 88V86.872L194.046 86.68C194.366 86.616 194.55 86.504 194.598 86.344C194.662 86.168 194.694 85.904 194.694 85.552V78.136C194.694 77.784 194.654 77.536 194.574 77.392C194.51 77.232 194.342 77.136 194.07 77.104L192.894 76.864L193.11 75.76H199.11V76.888L198.078 77.08C197.774 77.128 197.59 77.24 197.526 77.416C197.462 77.592 197.43 77.848 197.43 78.184V85.648C197.43 85.984 197.462 86.232 197.526 86.392C197.606 86.536 197.782 86.624 198.054 86.656L199.158 86.872V88H192.99ZM207.099 88.336C205.899 88.336 204.859 88.088 203.979 87.592C203.099 87.08 202.419 86.352 201.939 85.408C201.475 84.464 201.243 83.36 201.243 82.096C201.243 80.72 201.499 79.536 202.011 78.544C202.523 77.552 203.235 76.784 204.147 76.24C205.059 75.696 206.115 75.424 207.315 75.424C208.259 75.424 209.075 75.608 209.763 75.976C210.467 76.328 211.011 76.832 211.395 77.488C211.779 78.144 211.971 78.912 211.971 79.792C211.971 80.128 211.947 80.488 211.899 80.872C211.851 81.24 211.787 81.616 211.707 82H204.171C204.187 82.912 204.347 83.688 204.651 84.328C204.955 84.968 205.379 85.456 205.923 85.792C206.467 86.112 207.099 86.272 207.819 86.272C208.475 86.272 209.091 86.152 209.667 85.912C210.259 85.672 210.803 85.32 211.299 84.856L212.139 85.72C211.563 86.536 210.835 87.176 209.955 87.64C209.075 88.104 208.123 88.336 207.099 88.336ZM204.171 80.656H209.187C209.219 80.496 209.235 80.32 209.235 80.128C209.251 79.936 209.259 79.736 209.259 79.528C209.259 78.584 209.075 77.88 208.707 77.416C208.355 76.952 207.811 76.72 207.075 76.72C206.515 76.72 206.027 76.872 205.611 77.176C205.211 77.464 204.883 77.904 204.627 78.496C204.387 79.072 204.235 79.792 204.171 80.656Z" fill="url(#paint5_linear_491_82)"/>
<path d="M87.888 115.336C86.688 115.336 85.648 115.088 84.768 114.592C83.888 114.08 83.208 113.352 82.728 112.408C82.264 111.464 82.032 110.36 82.032 109.096C82.032 107.72 82.288 106.536 82.8 105.544C83.312 104.552 84.024 103.784 84.936 103.24C85.848 102.696 86.904 102.424 88.104 102.424C89.048 102.424 89.864 102.608 90.552 102.976C91.256 103.328 91.8 103.832 92.184 104.488C92.568 105.144 92.76 105.912 92.76 106.792C92.76 107.128 92.736 107.488 92.688 107.872C92.64 108.24 92.576 108.616 92.496 109H84.96C84.976 109.912 85.136 110.688 85.44 111.328C85.744 111.968 86.168 112.456 86.712 112.792C87.256 113.112 87.888 113.272 88.608 113.272C89.264 113.272 89.88 113.152 90.456 112.912C91.048 112.672 91.592 112.32 92.088 111.856L92.928 112.72C92.352 113.536 91.624 114.176 90.744 114.64C89.864 115.104 88.912 115.336 87.888 115.336ZM84.96 107.656H89.976C90.008 107.496 90.024 107.32 90.024 107.128C90.04 106.936 90.048 106.736 90.048 106.528C90.048 105.584 89.864 104.88 89.496 104.416C89.144 103.952 88.6 103.72 87.864 103.72C87.304 103.72 86.816 103.872 86.4 104.176C86 104.464 85.672 104.904 85.416 105.496C85.176 106.072 85.024 106.792 84.96 107.656ZM94.8534 115V113.848L95.9574 113.632C96.2294 113.584 96.4134 113.496 96.5094 113.368C96.6054 113.224 96.6534 112.992 96.6534 112.672V105.16C96.6534 104.776 96.6134 104.52 96.5334 104.392C96.4534 104.248 96.2934 104.152 96.0534 104.104L94.8774 103.888L95.0454 102.76H101.045V103.888L100.013 104.08C99.7574 104.128 99.5894 104.232 99.5094 104.392C99.4294 104.536 99.3894 104.8 99.3894 105.184V113.632H104.165V105.112C104.165 104.744 104.125 104.496 104.045 104.368C103.965 104.224 103.805 104.128 103.565 104.08L102.461 103.864L102.629 102.76H108.581V103.888L107.573 104.08C107.301 104.128 107.117 104.224 107.021 104.368C106.941 104.512 106.901 104.784 106.901 105.184V113.632H111.677V105.112C111.677 104.744 111.637 104.496 111.557 104.368C111.477 104.224 111.309 104.128 111.053 104.08L109.973 103.864L110.141 102.76H116.141V103.888L115.061 104.08C114.789 104.128 114.613 104.224 114.533 104.368C114.453 104.512 114.413 104.784 114.413 105.184V112.552C114.413 112.936 114.461 113.208 114.557 113.368C114.653 113.512 114.845 113.616 115.133 113.68L116.189 113.872V115H94.8534ZM124.122 115.336C122.922 115.336 121.882 115.088 121.002 114.592C120.122 114.08 119.442 113.352 118.962 112.408C118.498 111.464 118.266 110.36 118.266 109.096C118.266 107.72 118.522 106.536 119.034 105.544C119.546 104.552 120.258 103.784 121.17 103.24C122.082 102.696 123.138 102.424 124.338 102.424C125.282 102.424 126.098 102.608 126.786 102.976C127.49 103.328 128.034 103.832 128.418 104.488C128.802 105.144 128.994 105.912 128.994 106.792C128.994 107.128 128.97 107.488 128.922 107.872C128.874 108.24 128.81 108.616 128.73 109H121.194C121.21 109.912 121.37 110.688 121.674 111.328C121.978 111.968 122.402 112.456 122.946 112.792C123.49 113.112 124.122 113.272 124.842 113.272C125.498 113.272 126.114 113.152 126.69 112.912C127.282 112.672 127.826 112.32 128.322 111.856L129.162 112.72C128.586 113.536 127.858 114.176 126.978 114.64C126.098 115.104 125.146 115.336 124.122 115.336ZM121.194 107.656H126.21C126.242 107.496 126.258 107.32 126.258 107.128C126.274 106.936 126.282 106.736 126.282 106.528C126.282 105.584 126.098 104.88 125.73 104.416C125.378 103.952 124.834 103.72 124.098 103.72C123.538 103.72 123.05 103.872 122.634 104.176C122.234 104.464 121.906 104.904 121.65 105.496C121.41 106.072 121.258 106.792 121.194 107.656ZM131.16 115V113.848L132.24 113.656C132.496 113.624 132.664 113.536 132.744 113.392C132.824 113.232 132.864 112.944 132.864 112.528V105.16C132.864 104.776 132.824 104.52 132.744 104.392C132.664 104.248 132.504 104.152 132.264 104.104L131.088 103.888L131.28 102.76H137.28V103.888L136.224 104.08C135.968 104.128 135.8 104.232 135.72 104.392C135.64 104.536 135.6 104.8 135.6 105.184V108.064H140.952V105.112C140.952 104.744 140.912 104.496 140.832 104.368C140.752 104.224 140.592 104.128 140.352 104.08L139.248 103.864L139.416 102.76H145.416V103.888L144.36 104.08C144.088 104.128 143.904 104.224 143.808 104.368C143.728 104.512 143.688 104.784 143.688 105.184V112.648C143.688 113 143.728 113.248 143.808 113.392C143.904 113.52 144.08 113.608 144.336 113.656L145.488 113.872V115H139.32V113.872L140.328 113.68C140.584 113.632 140.752 113.536 140.832 113.392C140.912 113.248 140.952 112.976 140.952 112.576V109.456H135.6V112.624C135.6 112.992 135.64 113.248 135.72 113.392C135.8 113.52 135.96 113.608 136.2 113.656L137.352 113.872V115H131.16ZM147.683 115V113.848L148.787 113.656C149.043 113.624 149.211 113.536 149.291 113.392C149.371 113.232 149.411 112.944 149.411 112.528V105.16C149.411 104.776 149.371 104.52 149.291 104.392C149.211 104.248 149.051 104.152 148.811 104.104L147.635 103.888L147.803 102.76H153.803V103.888L152.747 104.08C152.491 104.128 152.323 104.232 152.243 104.392C152.179 104.536 152.147 104.8 152.147 105.184V110.464L157.499 105.52V105.112C157.499 104.744 157.459 104.496 157.379 104.368C157.299 104.224 157.139 104.128 156.899 104.08L155.795 103.864L155.963 102.76H161.963V103.888L160.907 104.08C160.635 104.128 160.451 104.224 160.355 104.368C160.275 104.512 160.235 104.784 160.235 105.184V112.648C160.235 113 160.275 113.248 160.355 113.392C160.451 113.52 160.627 113.608 160.883 113.656L162.035 113.872V115H155.867V113.872L156.875 113.68C157.131 113.632 157.299 113.536 157.379 113.392C157.459 113.248 157.499 112.976 157.499 112.576V107.224L152.147 112.216V112.624C152.147 112.992 152.179 113.248 152.243 113.392C152.323 113.52 152.491 113.608 152.747 113.656L153.875 113.872V115H147.683ZM165.814 115.312C165.35 115.312 164.942 115.232 164.59 115.072C164.254 114.928 163.91 114.688 163.558 114.352L163.846 113.488C163.974 113.552 164.086 113.6 164.182 113.632C164.294 113.648 164.406 113.656 164.518 113.656C164.774 113.656 164.982 113.616 165.142 113.536C165.302 113.44 165.462 113.248 165.622 112.96C165.782 112.672 165.982 112.24 166.222 111.664C166.398 111.248 166.614 110.888 166.87 110.584C167.126 110.28 167.438 110.032 167.806 109.84C168.174 109.632 168.59 109.488 169.054 109.408L169.15 109.36C168.302 109.28 167.59 109.112 167.014 108.856C166.438 108.6 166.006 108.248 165.718 107.8C165.446 107.336 165.31 106.768 165.31 106.096C165.31 105.392 165.502 104.792 165.886 104.296C166.286 103.8 166.854 103.424 167.59 103.168C168.342 102.896 169.246 102.76 170.302 102.76H176.686V103.888L175.606 104.08C175.334 104.128 175.158 104.224 175.078 104.368C174.998 104.512 174.958 104.784 174.958 105.184V112.648C174.958 113 174.998 113.248 175.078 113.392C175.158 113.52 175.334 113.608 175.606 113.656L176.734 113.872V115H170.566V113.872L171.598 113.68C171.854 113.632 172.022 113.536 172.102 113.392C172.182 113.248 172.222 112.976 172.222 112.576V109.816C172.078 109.816 171.902 109.816 171.694 109.816C171.502 109.816 171.302 109.824 171.094 109.84C170.902 109.84 170.742 109.856 170.614 109.888C170.262 109.936 169.974 110.048 169.75 110.224C169.526 110.384 169.326 110.656 169.15 111.04C168.99 111.424 168.814 111.968 168.622 112.672C168.462 113.248 168.246 113.736 167.974 114.136C167.702 114.52 167.382 114.808 167.014 115C166.662 115.208 166.262 115.312 165.814 115.312ZM170.926 108.64H172.222V103.936C172.014 103.904 171.798 103.888 171.574 103.888C171.366 103.872 171.07 103.864 170.686 103.864C170.19 103.864 169.75 103.96 169.366 104.152C168.982 104.328 168.686 104.6 168.478 104.968C168.27 105.32 168.166 105.744 168.166 106.24C168.166 107.088 168.39 107.704 168.838 108.088C169.286 108.456 169.982 108.64 170.926 108.64Z" fill="url(#paint6_linear_491_82)"/>
<defs>
<filter id="filter0_b_491_82" x="-10" y="-10" width="150" height="150" filterUnits="userSpaceOnUse" color-interpolation-filters="sRGB">
<feFlood flood-opacity="0" result="BackgroundImageFix"/>
<feGaussianBlur in="BackgroundImage" stdDeviation="5"/>
<feComposite in2="SourceAlpha" operator="in" result="effect1_backgroundBlur_491_82"/>
<feBlend mode="normal" in="SourceGraphic" in2="effect1_backgroundBlur_491_82" result="shape"/>
</filter>
<linearGradient id="paint0_linear_491_82" x1="0" y1="0" x2="130" y2="130" gradientUnits="userSpaceOnUse">
<stop stop-color="white"/>
<stop offset="0.284374" stop-color="#E0AA8C"/>
<stop offset="0.701041" stop-color="white" stop-opacity="0"/>
</linearGradient>
<linearGradient id="paint1_linear_491_82" x1="68.566" y1="11.1946" x2="68.566" y2="114.936" gradientUnits="userSpaceOnUse">
<stop offset="0.195833" stop-color="#FFC700"/>
<stop offset="0.289583" stop-color="#F7DA77"/>
<stop offset="0.956249" stop-color="#FFC700"/>
<stop offset="1" stop-color="#AB8500"/>
</linearGradient>
<linearGradient id="paint2_linear_491_82" x1="37.5554" y1="42.9723" x2="88.8332" y2="42.9723" gradientUnits="userSpaceOnUse">
<stop stop-color="#FFC700"/>
<stop offset="0.586458" stop-color="#F5DD88"/>
<stop offset="1" stop-color="#FFC700"/>
</linearGradient>
<linearGradient id="paint3_linear_491_82" x1="72.588" y1="84.8848" x2="103.72" y2="84.8848" gradientUnits="userSpaceOnUse">
<stop stop-color="#FFC700"/>
<stop offset="0.664583" stop-color="#F5DD88"/>
<stop offset="1" stop-color="#FFC700"/>
</linearGradient>
<linearGradient id="paint4_linear_491_82" x1="23.6171" y1="84.8848" x2="54.7486" y2="84.8848" gradientUnits="userSpaceOnUse">
<stop stop-color="#FFC700"/>
<stop offset="0.664583" stop-color="#F5DD88"/>
<stop offset="1" stop-color="#FFC700"/>
</linearGradient>
<linearGradient id="paint5_linear_491_82" x1="161.5" y1="60" x2="161.5" y2="96" gradientUnits="userSpaceOnUse">
<stop stop-color="#F6DA77" stop-opacity="0"/>
<stop offset="0.852083" stop-color="#FFC700"/>
</linearGradient>
<linearGradient id="paint6_linear_491_82" x1="129.5" y1="87" x2="129.5" y2="123" gradientUnits="userSpaceOnUse">
<stop stop-color="#F6DA77" stop-opacity="0"/>
<stop offset="0.852083" stop-color="#FFC700"/>
</linearGradient>
</defs>
</svg>
